<?xml version="1.0" encoding="UTF-8" standalone="no"?>
<svg
   xmlns:dc="http://purl.org/dc/elements/1.1/"
   xmlns:cc="http://creativecommons.org/ns#"
   xmlns:rdf="http://www.w3.org/1999/02/22-rdf-syntax-ns#"
   xmlns:svg="http://www.w3.org/2000/svg"
   xmlns="http://www.w3.org/2000/svg"
   id="svg8"
   version="1.1"
   viewBox="0 0 71.01638 194.85385"
   height="194.85385mm"
   width="71.01638mm">
  <defs
     id="defs2" />
  <metadata
     id="metadata5">
    <rdf:RDF>
      <cc:Work
         rdf:about="">
        <dc:format>image/svg+xml</dc:format>
        <dc:type
           rdf:resource="http://purl.org/dc/dcmitype/StillImage" />
        <dc:title></dc:title>
      </cc:Work>
    </rdf:RDF>
  </metadata>
  <g
     transform="translate(-63.656922,-73.822352)"
     id="layer1">
    <path
       style="stroke-width:0.26458332"
       d="m 83.888396,221.41984 c -0.647353,-1.18087 -1.306748,-2.35488 -1.961065,-3.53187 -0.538684,-0.95075 -1.182698,-1.83416 -1.751261,-2.76626 -0.793758,-1.29452 -1.301964,-2.71477 -1.712934,-4.16832 -0.416816,-1.64538 -0.648742,-3.3219 -0.770408,-5.01211 -0.143664,-1.87804 -0.0236,-3.75013 0.202822,-5.61496 0.206605,-1.84092 0.678825,-3.6213 1.271037,-5.37056 0.696703,-1.95595 1.45348,-3.89091 2.230752,-5.81618 0.597871,-1.58142 1.495983,-2.99788 2.527512,-4.32573 1.002879,-1.24204 2.136939,-2.36711 3.337033,-3.41654 0.698484,-0.56864 1.417619,-1.12079 2.199966,-1.57129 5.749041,-3.31048 8.323799,-5.04194 13.02741,-7.27144 1.7693,-0.8637 3.62709,-1.55186 5.54547,-1.99438 1.79833,-0.35877 3.56197,-0.47548 5.38753,-0.33495 2.06041,0.25336 4.0476,0.81686 5.96883,1.58878 1.6907,0.75073 3.20456,1.80284 4.6029,3.00175 0.20676,0.19797 0.41936,0.39 0.62027,0.5939 0.63468,0.64413 0.58422,0.64888 1.18959,1.33361 0.69305,0.7839 1.40937,1.54848 2.10886,2.32675 1.47821,1.73827 2.74552,3.6437 3.81863,5.65456 1.00993,2.0185 1.61147,4.18805 2.11612,6.37678 0.51992,2.19342 0.67843,4.44192 0.78066,6.68624 0.10765,2.14781 0.0188,4.29079 -0.22237,6.4256 -0.19486,1.41649 -0.43623,2.83916 -0.94204,4.18313 -0.31106,0.82649 -0.63079,1.42941 -1.01925,2.22073 -1.04833,1.9864 -2.12004,3.96139 -3.23952,5.90872 -0.83143,1.32461 -1.55406,2.73043 -2.52416,3.96398 -0.20228,0.25721 -0.42393,0.49856 -0.6359,0.74784 -1.49922,1.61621 -3.29225,2.89575 -5.12179,4.10498 -5.00351,3.17776 -9.98642,6.53425 -15.56501,8.58474 -2.02428,0.68608 -4.10898,1.1634 -6.202368,1.58116 -2.154314,0.45202 -4.317775,0.83463 -6.505345,1.08058 -1.133562,0.1192 -2.268897,0.21299 -3.398565,0.01 -0.656071,-0.11813 -1.107403,-0.26736 -1.750444,-0.45321 -2.287574,-0.80718 -4.541699,-1.70767 -6.753777,-2.70268 -2.683981,-1.21816 -5.018659,-3.02304 -7.268118,-4.89828 -1.521756,-1.36678 -2.882939,-2.91521 -3.992872,-4.63584 -0.586446,-0.90912 -1.120185,-1.90566 -1.645282,-2.85007 -1.701832,-3.11555 -2.681965,-6.53255 -3.467703,-9.97369 -0.615797,-3.17274 -0.794261,-6.41649 -0.687756,-9.6432 0.02156,-0.65291 0.07088,-1.3046 0.106329,-1.95691 0.216812,-2.52616 0.511513,-5.05132 1.067384,-7.52813 0.322758,-1.43811 0.512813,-2.00213 0.927246,-3.41604 0.804865,-2.51815 1.690343,-5.01695 2.803681,-7.41759 0.762114,-1.64331 1.182198,-2.36342 2.046539,-3.96637 1.505968,-2.62343 3.142832,-5.17766 4.971613,-7.58913 0.962284,-1.26889 1.802032,-2.25962 2.816405,-3.48794 3.254444,-3.82781 6.32542,-7.80022 9.26856,-11.87052 2.307656,-3.24894 4.432697,-6.6316 6.329717,-10.13709 1.329997,-2.45769 1.734381,-3.38236 2.948623,-5.91582 2.315403,-5.02856 4.278733,-10.22313 5.896123,-15.51777 0.30325,-0.99274 0.57679,-1.99432 0.86519,-2.99147 0.95588,-3.54841 1.83621,-7.12378 2.39285,-10.75945 0.29165,-1.90483 0.34772,-2.70135 0.53764,-4.59326 0.24516,-3.10716 0.36036,-6.248546 0.005,-9.352997 -0.0571,-0.499248 -0.14266,-0.994823 -0.21399,-1.492234 -0.38994,-2.69869 -1.42216,-4.968312 -2.75891,-7.308416 -0.80968,-1.273048 -1.68213,-2.531142 -2.75226,-3.603654 -0.50559,-0.506707 -0.68712,-0.603761 -1.25047,-1.007491 -0.881814,-0.51303 -1.918684,-0.749462 -2.936804,-0.57212 -0.1861,0.03242 -0.364545,0.0992 -0.546819,0.148799 -0.182489,0.076 -0.371298,0.138322 -0.547465,0.228008 -0.189498,0.09647 -0.731542,0.433837 -0.546566,0.328954 3.275782,-1.857386 6.537434,-3.739698 9.819164,-5.586566 0.21742,-0.122357 -0.42531,0.262265 -0.62473,0.412183 -0.55365,0.416232 -0.67873,0.593567 -1.1562,1.100752 -1.52702,1.709092 -2.20191,3.874751 -2.83938,6.027314 -1.325791,5.382191 -1.808179,10.925688 -2.258352,16.436328 -0.418888,5.97242 -0.605242,11.95671 -0.707723,17.94177 -0.03638,4.74769 0.05384,9.50195 0.459452,14.23454 0.08203,0.95708 0.190044,1.91176 0.285067,2.86764 0.67492,6.01898 1.598806,12.00459 2.562676,17.98273 0.68142,3.99366 1.27462,8.00269 1.99577,11.98961 0.33657,1.8607 0.6994,3.71656 1.04415,5.57576 1.06117,5.85849 2.15009,11.71031 3.46247,17.51823 1.26118,5.4137 2.35946,10.8632 3.45222,16.31281 0.95579,4.59982 1.77688,9.22522 2.65453,13.84004 0.7048,3.42239 1.28599,6.86498 1.79469,10.32116 0.48315,3.0932 0.80468,6.20571 1.04045,9.32631 0.22322,2.86561 0.40413,5.7334 0.51592,8.60554 0.087,2.37674 0.1513,4.7509 -0.0232,7.12425 -0.13057,1.21517 -0.26593,2.444 -0.6373,3.61449 -0.19855,0.62578 -0.28532,0.75469 -0.5647,1.33343 -0.69832,1.32085 -1.77857,2.31139 -2.97419,3.17234 -3.63755,1.90247 -8.47515,6.4332 -13.487907,6.83299 -0.697495,0.0556 -0.984512,0.0201 -1.679755,-0.0124 -1.408925,-0.10845 -2.770182,-0.53062 -3.949047,-1.32077 -0.249137,-0.16698 -0.479186,-0.36081 -0.71878,-0.54123 -1.401397,-1.16367 -2.320253,-2.7235 -3.058636,-4.3618 -0.581922,-1.36532 -0.729208,-2.48241 -0.566333,-3.94213 0.200097,-1.12258 0.584182,-2.20169 0.942745,-3.28112 0.171826,-0.53083 0.40925,-1.04042 0.55799,-1.57855 0.06395,-0.12155 0.05848,-0.19036 0.02159,-0.31729 0,0 10.772773,-5.96656 10.772773,-5.96656 v 0 c 0.1109,0.28187 0.23507,0.56192 0.25674,0.86869 -0.0481,0.65471 -0.24736,1.25324 -0.52865,1.84649 -0.43101,0.99527 -0.7398,2.04217 -1.063776,3.07591 -0.289091,1.19406 -0.278564,2.18846 0.168386,3.35551 0.6098,1.46116 1.424,2.82483 2.70914,3.79395 0.21728,0.13894 0.42674,0.29095 0.65184,0.41684 1.10319,0.61698 2.35535,0.83591 3.60744,0.82587 0.79209,-0.0444 1.54763,-0.1228 2.31291,-0.3486 3.79167,-1.11875 10.13262,-6.7892 -8.24745,5.04123 1.22453,-0.66468 2.33765,-1.46962 3.16127,-2.61443 0.31655,-0.45498 0.45634,-0.61805 0.69995,-1.12746 0.5087,-1.06374 0.66851,-2.24054 0.83215,-3.39551 0.25899,-2.33925 0.26279,-4.68671 0.18314,-7.03777 -0.0775,-2.86481 -0.24047,-5.72415 -0.44843,-8.58242 -0.23925,-3.10051 -0.48848,-6.20176 -0.95915,-9.27795 -0.49419,-3.45643 -1.05874,-6.90197 -1.66804,-10.33999 -0.81044,-4.64413 -1.5238,-9.30531 -2.45466,-13.92807 -1.054376,-5.45415 -2.19735,-10.88979 -3.397942,-16.31363 -1.243536,-5.83224 -2.376953,-11.68714 -3.492336,-17.5451 -0.293092,-1.5839 -0.748898,-4.02113 -1.022995,-5.60679 -0.691682,-4.00137 -1.265291,-8.02219 -1.941851,-12.02609 -0.989241,-5.98621 -1.968299,-11.97592 -2.665506,-18.0049 -0.102758,-0.964 -0.219503,-1.92662 -0.308279,-2.89202 -0.438089,-4.76397 -0.536527,-9.55327 -0.495541,-14.33473 0.111075,-6.01961 0.313198,-12.03688 0.754634,-18.04267 0.41252,-5.480056 0.838052,-10.973393 1.721321,-16.401042 0.499248,-2.23021 1.00084,-4.533199 2.396342,-6.400597 0.350425,-0.482293 1.090181,-1.55643 1.600589,-1.859507 3.019359,-1.792878 7.784384,-5.978737 12.362634,-6.648024 1.56266,-0.0067 2.70412,0.298095 3.9744,1.2539 0.21852,0.186359 0.44659,0.362082 0.65558,0.559078 1.38517,1.305679 2.4265,2.94106 3.44206,4.533812 0.56937,0.989889 0.80977,1.359811 1.29447,2.393572 0.79619,1.698106 1.35801,3.489502 1.62644,5.348052 0.0688,0.522883 0.15223,1.044054 0.20649,1.568651 0.3311,3.200622 0.22232,6.436431 -0.0734,9.634236 -0.0837,0.760545 -0.15381,1.522699 -0.25102,2.281639 -0.58018,4.52935 -1.57557,8.99077 -2.84043,13.37631 -0.29429,1.01149 -0.57533,2.02694 -0.88287,3.03448 -1.62835,5.33463 -3.585,10.57564 -5.86423,15.66585 -1.05229,2.27099 -1.70121,3.73955 -2.851,5.95435 -1.83359,3.53196 -3.92303,6.93357 -6.174973,10.21257 -0.877252,1.23563 -2.267651,3.20704 -3.173854,4.43266 -1.884569,2.54883 -3.89155,5.00314 -5.908114,7.44771 -0.697579,0.83494 -2.154666,2.56649 -2.831388,3.42583 -1.85651,2.35751 -3.523179,4.8596 -5.047893,7.44279 -0.736404,1.34338 -1.381514,2.47371 -2.039723,3.85494 -1.113541,2.33673 -1.985534,4.78064 -2.769545,7.2443 -0.353996,1.14668 -0.686969,2.17483 -0.983972,3.33821 -0.618421,2.42239 -0.943623,4.90139 -1.181862,7.38669 -0.04376,0.63754 -0.101557,1.27427 -0.131275,1.91261 -0.145995,3.13589 0.01783,6.28724 0.599178,9.37505 0.124769,0.57873 0.233518,1.16114 0.374306,1.73617 0.671242,2.74161 1.662702,5.41033 2.974734,7.90937 0.628108,1.11747 0.906039,1.66225 1.614606,2.72538 1.07672,1.61548 2.365063,3.08589 3.826714,4.36348 2.204371,1.79353 4.507759,3.47969 7.144824,4.58947 2.196211,0.94897 4.431681,1.83281 6.744086,2.4579 0.684454,0.13951 0.977265,0.22402 1.662367,0.27198 1.073714,0.0752 2.149554,-0.0757 3.216234,-0.17066 2.1532,-0.27188 4.28227,-0.68646 6.40403,-1.14069 2.06575,-0.46456 4.13088,-0.97188 6.10168,-1.75866 0.81307,-0.34557 1.05664,-0.43577 1.84605,-0.82373 0.28851,-0.14178 1.13427,-0.60495 0.85702,-0.44224 -16.88541,9.90994 -11.40416,6.70874 -7.83111,4.49593 1.82403,-1.1486 3.65128,-2.30409 5.20343,-3.81732 0.22041,-0.21367 0.4517,-0.41667 0.66124,-0.64102 1.06438,-1.13952 1.78926,-2.53431 2.61394,-3.843 1.19084,-1.90527 2.24313,-3.89369 3.33611,-5.8559 0.18768,-0.36197 0.88027,-1.68386 1.05383,-2.07252 0.5574,-1.24819 0.81856,-2.59367 1.02725,-3.93719 0.30102,-2.07337 0.43433,-4.15794 0.32147,-6.25368 -0.059,-2.17869 -0.17501,-4.36418 -0.63962,-6.50066 -0.48547,-2.08546 -1.05605,-4.15394 -1.9978,-6.08745 -1.00855,-1.93114 -2.20073,-3.76614 -3.64844,-5.40053 -1.27866,-1.38003 -2.55275,-2.77143 -3.91026,-4.07294 -1.32315,-1.09091 -2.74689,-2.05552 -4.3508,-2.68993 -1.85699,-0.69059 -3.78742,-1.1746 -5.77723,-1.24202 -1.73187,-0.0141 -3.46461,0.15116 -5.140119,0.61009 -1.855369,0.56749 -3.661463,1.27715 -5.390626,2.16145 -3.818853,1.87472 -8.953899,5.1113 7.667575,-4.58217 0.2652,-0.15466 -0.54391,0.28526 -0.809874,0.43862 -0.252455,0.14556 -0.502076,0.29652 -0.744799,0.4578 -0.2353,0.15633 -0.458896,0.3296 -0.688346,0.4944 -1.242226,0.94147 -2.361631,2.01708 -3.395361,3.1841 -1.080145,1.22461 -2.100061,2.51898 -2.743631,4.03436 -0.825587,1.8805 -1.547074,3.80702 -2.257859,5.73319 -0.572997,1.68871 -1.134504,3.38562 -1.377174,5.16057 -0.257223,1.78359 -0.410875,3.57718 -0.263147,5.37972 0.09127,1.61403 0.264895,3.22041 0.64076,4.79637 0.369604,1.3466 0.873696,2.6388 1.620864,3.82544 0.595228,0.9433 1.25603,1.84575 1.783712,2.83098 0.611653,1.16345 1.188191,2.35828 1.960409,3.42558 0,0 -10.570911,6.17059 -10.570911,6.17059 z"
       id="path59" />
  </g>
</svg>
